<svg id="Layer_1" data-name="Layer 1" xmlns="http://www.w3.org/2000/svg" viewBox="0 0 115 115"><defs><style>.cls-1{fill:#69b4b2;}.cls-2{fill:#fff;}</style></defs><title>Artboard 1 copy 2</title><circle class="cls-1" cx="57.5" cy="57.5" r="57.5"/><g id="color2"><path class="cls-2" d="M57.5,95A32.14,32.14,0,0,0,89.64,62.86,32.14,32.14,0,0,0,57.5,95ZM34.66,53a8.92,8.92,0,0,0,14,7.35l-.07.68a8.93,8.93,0,0,0,17.86,0l-.07-.68a8.75,8.75,0,0,0,5,1.57,8.91,8.91,0,0,0,3.82-17A8.91,8.91,0,0,0,67.6,28.89a9.54,9.54,0,0,0-1.24.72l.07-.68a8.93,8.93,0,0,0-17.86,0l.07.68a8.75,8.75,0,0,0-5-1.57,8.91,8.91,0,0,0-3.82,17A8.87,8.87,0,0,0,34.66,53Zm22.84-17A8.93,8.93,0,1,1,48.57,45,8.93,8.93,0,0,1,57.5,36.07ZM25.36,62.86A32.14,32.14,0,0,0,57.5,95,32.14,32.14,0,0,0,25.36,62.86Z"/></g></svg>