<svg xmlns="http://www.w3.org/2000/svg" viewBox="0 0 111.6 101.41"><defs><style>.cls-1{fill:#fff;}.cls-2{fill:none;stroke:#9ed363;stroke-miterlimit:10;stroke-width:2.92px;}.cls-3{fill:#9ed363;}.cls-4{fill:#3b0124;}</style></defs><title>logo_vertical_web</title><g id="Layer_2" data-name="Layer 2"><g id="color2"><path class="cls-1" d="M33.85,95.89H32V99c0,.21,0,.39,0,.57a1.07,1.07,0,0,0,.11.45.7.7,0,0,0,.28.31,1.07,1.07,0,0,0,.53.11,2.59,2.59,0,0,0,.47,0,2.18,2.18,0,0,0,.45-.16l0,.94a2.71,2.71,0,0,1-.59.18,4.69,4.69,0,0,1-.62,0,2.22,2.22,0,0,1-.9-.15,1.18,1.18,0,0,1-.52-.41,1.62,1.62,0,0,1-.24-.66,5.75,5.75,0,0,1-.06-.87V95.89H29.61V95H31V93.24h1V95h1.84Z"/><path class="cls-1" d="M40.7,100.12a3.08,3.08,0,0,1-1.23,1,3.71,3.71,0,0,1-1.54.29,3.36,3.36,0,0,1-1.33-.26A2.92,2.92,0,0,1,35,99.41a3.82,3.82,0,0,1,0-2.61,3.18,3.18,0,0,1,.66-1,3.12,3.12,0,0,1,1-.67A3.32,3.32,0,0,1,38,94.85a3.16,3.16,0,0,1,1.2.22,2.62,2.62,0,0,1,.93.64,2.71,2.71,0,0,1,.61,1,4.17,4.17,0,0,1,.21,1.38v.33h-5a2.08,2.08,0,0,0,.19.77,2.18,2.18,0,0,0,.43.64,2.13,2.13,0,0,0,.63.43,1.86,1.86,0,0,0,.79.16,2.46,2.46,0,0,0,1.14-.24,2.53,2.53,0,0,0,.84-.71Zm-.89-2.55a1.85,1.85,0,0,0-.52-1.28,1.88,1.88,0,0,0-1.36-.48,1.92,1.92,0,0,0-2,1.76Z"/><path class="cls-1" d="M42.46,95.81a3,3,0,0,1,1.14-.73,4.1,4.1,0,0,1,1.34-.23,2.67,2.67,0,0,1,2,.65,2.82,2.82,0,0,1,.61,2v2.68a5.21,5.21,0,0,0,0,.55c0,.2,0,.37.06.53h-1a3.16,3.16,0,0,1-.06-.47v-.46h0a2.36,2.36,0,0,1-.82.78,2.29,2.29,0,0,1-1.23.31,3.26,3.26,0,0,1-.9-.12,2.25,2.25,0,0,1-.73-.35,1.74,1.74,0,0,1-.5-.58,1.6,1.6,0,0,1-.19-.8,1.74,1.74,0,0,1,.4-1.22,2.48,2.48,0,0,1,1-.65,5.19,5.19,0,0,1,1.28-.27c.46,0,.88,0,1.26,0h.4v-.19a1.24,1.24,0,0,0-.41-1A1.71,1.71,0,0,0,45,95.81,3.12,3.12,0,0,0,44,96a2.42,2.42,0,0,0-.86.51Zm3,2.44a3.72,3.72,0,0,0-1.59.28,1,1,0,0,0-.58.92.9.9,0,0,0,.39.83,1.76,1.76,0,0,0,1,.25,1.92,1.92,0,0,0,.79-.15A1.61,1.61,0,0,0,46,100a1.85,1.85,0,0,0,.35-.59,2.48,2.48,0,0,0,.13-.73v-.4Z"/><path class="cls-1" d="M49.46,91.17h1v4.71h0a1.68,1.68,0,0,1,.3-.37,2.2,2.2,0,0,1,.44-.33,4.39,4.39,0,0,1,.58-.24,2.54,2.54,0,0,1,.68-.09,2.61,2.61,0,0,1,1.06.19,1.91,1.91,0,0,1,.74.52,2.14,2.14,0,0,1,.44.8,3.79,3.79,0,0,1,.14,1v3.85h-1V97.5a2,2,0,0,0-.35-1.24,1.27,1.27,0,0,0-1.08-.45,2.08,2.08,0,0,0-.87.17,1.47,1.47,0,0,0-.6.5,2.13,2.13,0,0,0-.35.76,4.17,4.17,0,0,0-.11,1v3h-1Z"/><path class="cls-1" d="M56.51,98.13a3.54,3.54,0,0,1,.25-1.33,3.07,3.07,0,0,1,1.75-1.71,3.61,3.61,0,0,1,1.33-.24,3.67,3.67,0,0,1,1.34.24,3.15,3.15,0,0,1,1,.67,3.26,3.26,0,0,1,.69,1,3.53,3.53,0,0,1,0,2.66,3.26,3.26,0,0,1-.69,1,3,3,0,0,1-1,.67,3.67,3.67,0,0,1-1.34.24,3.61,3.61,0,0,1-1.33-.24,3,3,0,0,1-1-.67,3.13,3.13,0,0,1-.7-1A3.54,3.54,0,0,1,56.51,98.13Zm1.12,0a2.67,2.67,0,0,0,.15.91,2.41,2.41,0,0,0,.45.74,2.16,2.16,0,0,0,.7.49,2.42,2.42,0,0,0,1.83,0,2.16,2.16,0,0,0,.7-.49A2.2,2.2,0,0,0,61.9,99a2.67,2.67,0,0,0,0-1.82,2.2,2.2,0,0,0-.44-.74,2.32,2.32,0,0,0-.7-.49,2.42,2.42,0,0,0-1.83,0,2.32,2.32,0,0,0-.7.49,2.41,2.41,0,0,0-.45.74A2.67,2.67,0,0,0,57.63,98.13Z"/><path class="cls-1" d="M70.23,99.77c0,.29,0,.55,0,.8s0,.48,0,.68h-1c0-.17,0-.34,0-.51s0-.34,0-.52h0a1.56,1.56,0,0,1-.3.44,1.9,1.9,0,0,1-.46.38,2.44,2.44,0,0,1-1.32.37,2.64,2.64,0,0,1-1.06-.19,2,2,0,0,1-.74-.52,2.13,2.13,0,0,1-.43-.8,3.79,3.79,0,0,1-.14-1V95h1v3.75a2,2,0,0,0,.35,1.24,1.27,1.27,0,0,0,1.08.45,2.11,2.11,0,0,0,.87-.17,1.61,1.61,0,0,0,.6-.5,2.13,2.13,0,0,0,.35-.76,4.11,4.11,0,0,0,.11-1V95h1Z"/><path class="cls-1" d="M72.34,99.61a2.54,2.54,0,0,0,.67.61,1.65,1.65,0,0,0,.93.23,2.61,2.61,0,0,0,.48,0,1.51,1.51,0,0,0,.45-.18,1,1,0,0,0,.32-.3.75.75,0,0,0,.12-.43.71.71,0,0,0-.11-.41,1.15,1.15,0,0,0-.3-.28,2.41,2.41,0,0,0-.43-.18L74,98.5a8.58,8.58,0,0,1-.84-.21,2.65,2.65,0,0,1-.7-.31,1.53,1.53,0,0,1-.48-.5,1.57,1.57,0,0,1-.18-.79,1.51,1.51,0,0,1,.2-.8,1.7,1.7,0,0,1,.53-.57,2.59,2.59,0,0,1,.75-.35,3,3,0,0,1,.85-.12,2.81,2.81,0,0,1,1.23.27,1.9,1.9,0,0,1,.89.86l-.87.58a1.68,1.68,0,0,0-.52-.54,1.47,1.47,0,0,0-.8-.21,2.18,2.18,0,0,0-.43,0,1.38,1.38,0,0,0-.39.16,1.11,1.11,0,0,0-.29.28.63.63,0,0,0-.11.38.52.52,0,0,0,.12.34,1.19,1.19,0,0,0,.35.24,2.35,2.35,0,0,0,.51.19,5.61,5.61,0,0,0,.59.13c.28.06.54.13.79.21a2.5,2.5,0,0,1,.65.34,1.51,1.51,0,0,1,.44.53,1.74,1.74,0,0,1,.16.79,1.83,1.83,0,0,1-.21.91,1.73,1.73,0,0,1-.57.6,2.39,2.39,0,0,1-.8.34,4,4,0,0,1-.91.11,3.37,3.37,0,0,1-1.38-.25,2.41,2.41,0,0,1-1-.91Z"/><path class="cls-1" d="M83.46,100.12a3.22,3.22,0,0,1-1.23,1,3.73,3.73,0,0,1-1.55.29,3.27,3.27,0,0,1-1.32-.26,3,3,0,0,1-1-.7,3.12,3.12,0,0,1-.63-1,3.87,3.87,0,0,1-.22-1.28,3.61,3.61,0,0,1,.24-1.33,3.21,3.21,0,0,1,.67-1,3.07,3.07,0,0,1,1-.67,3.35,3.35,0,0,1,1.28-.24,3.09,3.09,0,0,1,1.2.22,2.58,2.58,0,0,1,.94.64,2.85,2.85,0,0,1,.61,1,4.17,4.17,0,0,1,.21,1.38v.33h-5a2.31,2.31,0,0,0,.2.77,2.18,2.18,0,0,0,.43.64,2.13,2.13,0,0,0,.63.43,1.85,1.85,0,0,0,.78.16,2.48,2.48,0,0,0,1.15-.24,2.53,2.53,0,0,0,.84-.71Zm-.9-2.55A1.8,1.8,0,0,0,82,96.29a1.87,1.87,0,0,0-1.36-.48,2,2,0,0,0-1.4.48,2,2,0,0,0-.64,1.28Z"/><path class="cls-1" d="M0,81.76A1.68,1.68,0,0,1,.38,80.5a1.89,1.89,0,0,1,1.27-.34c1,0,1.59.35,1.66,1,.07,1.82.94,2.72,2.62,2.72s2.7-1,2.7-2.92V71H6a.85.85,0,0,1-.76-.43,1.84,1.84,0,0,1-.28-1,1.92,1.92,0,0,1,.26-1A.87.87,0,0,1,6,68.07h4.45a1.9,1.9,0,0,1,1,.28.87.87,0,0,1,.43.77V81a5.58,5.58,0,0,1-1.61,4.41,6.22,6.22,0,0,1-4.24,1.41,6.77,6.77,0,0,1-4.39-1.36A4.48,4.48,0,0,1,0,81.76Z"/><path class="cls-1" d="M14.83,81V69.09a.81.81,0,0,1,.49-.76,2.47,2.47,0,0,1,1.17-.26,2.52,2.52,0,0,1,1.17.26.81.81,0,0,1,.48.76V81c0,2,.93,2.92,2.8,2.92s2.8-1,2.8-2.92V69.09a.81.81,0,0,1,.48-.76,2.76,2.76,0,0,1,2.34,0,.82.82,0,0,1,.49.76V81a5.47,5.47,0,0,1-1.67,4.41,6.64,6.64,0,0,1-4.44,1.41,6.69,6.69,0,0,1-4.44-1.39A5.48,5.48,0,0,1,14.83,81Z"/><path class="cls-1" d="M29.11,83.75a2,2,0,0,1,.44-1.19,1.25,1.25,0,0,1,1-.59,1.3,1.3,0,0,1,.75.31,8.82,8.82,0,0,1,.81.7,3.6,3.6,0,0,0,1.13.7,4,4,0,0,0,1.63.32,3.55,3.55,0,0,0,2-.56,1.87,1.87,0,0,0,.81-1.65,2.24,2.24,0,0,0-.44-1.36,3.7,3.7,0,0,0-1.17-1c-.49-.26-1-.51-1.59-.76s-1.16-.52-1.75-.83a9.32,9.32,0,0,1-1.6-1A4.21,4.21,0,0,1,30,75.29a5.06,5.06,0,0,1-.45-2.18,5.16,5.16,0,0,1,.55-2.41,4.21,4.21,0,0,1,1.46-1.63,6.94,6.94,0,0,1,2-.85A8.88,8.88,0,0,1,35.75,68a11.71,11.71,0,0,1,1.4.09,12.51,12.51,0,0,1,1.56.3,3.4,3.4,0,0,1,1.35.65A1.34,1.34,0,0,1,40.58,70a2.3,2.3,0,0,1-.36,1.17,1.06,1.06,0,0,1-1,.6A4.88,4.88,0,0,1,38,71.33a5.23,5.23,0,0,0-2.26-.48,3.68,3.68,0,0,0-2.13.52,1.66,1.66,0,0,0-.75,1.44,1.68,1.68,0,0,0,.61,1.28A4.69,4.69,0,0,0,35,75c.6.23,1.25.52,2,.87A15.31,15.31,0,0,1,38.91,77a4.76,4.76,0,0,1,1.52,1.77A5.67,5.67,0,0,1,41,81.46a5,5,0,0,1-1.67,4A6.51,6.51,0,0,1,35,86.9a8.18,8.18,0,0,1-4.14-1C29.68,85.25,29.11,84.53,29.11,83.75Z"/><path class="cls-1" d="M42.08,69.51a1.85,1.85,0,0,1,.27-1,.86.86,0,0,1,.77-.44H53.89a.85.85,0,0,1,.77.44,1.85,1.85,0,0,1,.27,1,1.83,1.83,0,0,1-.28,1,.86.86,0,0,1-.76.43H50.17V85.62a.85.85,0,0,1-.49.77,2.29,2.29,0,0,1-1.16.28,2.25,2.25,0,0,1-1.17-.28.87.87,0,0,1-.49-.77V71H43.12a.87.87,0,0,1-.76-.42A1.79,1.79,0,0,1,42.08,69.51Z"/><path class="cls-1" d="M53.61,83.41a3,3,0,0,1,1.52-2.82,9.63,9.63,0,0,1,4.41-.81h1v-.34A2.68,2.68,0,0,0,60,77.75,2,2,0,0,0,58.34,77a4.11,4.11,0,0,0-2,.43,4.52,4.52,0,0,1-.94.44.93.93,0,0,1-.82-.51,2.19,2.19,0,0,1-.3-1.12c0-.49.44-.92,1.31-1.29a7.15,7.15,0,0,1,2.76-.55,5.42,5.42,0,0,1,4.12,1.42,4.92,4.92,0,0,1,1.35,3.55v6.23a.88.88,0,0,1-.46.74,2,2,0,0,1-1.14.3,1.71,1.71,0,0,1-1.06-.32,1,1,0,0,1-.42-.79v-.79a5,5,0,0,1-3.87,2.13A3.29,3.29,0,0,1,54.54,86,3.43,3.43,0,0,1,53.61,83.41ZM56.89,83a1.22,1.22,0,0,0,.37,1,1.4,1.4,0,0,0,1,.33,2.24,2.24,0,0,0,1.57-.73A2.16,2.16,0,0,0,60.58,82v-.51H60.2a7.75,7.75,0,0,0-2.43.3A1.19,1.19,0,0,0,56.89,83Z"/><path class="cls-1" d="M66.23,81V73.9a5.52,5.52,0,0,1,1.63-4.41,6.19,6.19,0,0,1,4.24-1.42,6.9,6.9,0,0,1,4.37,1.33,4.22,4.22,0,0,1,1.69,3.51,1.7,1.7,0,0,1-.38,1.28,1.89,1.89,0,0,1-1.27.35c-1.09,0-1.64-.35-1.66-1.05q0-.33-.06-.57a3.56,3.56,0,0,0-.21-.64,2.39,2.39,0,0,0-.41-.66,2.21,2.21,0,0,0-.77-.46A3.58,3.58,0,0,0,72.21,71c-1.79,0-2.68,1-2.68,2.93V81c0,2,.91,2.92,2.73,2.92a3.24,3.24,0,0,0,1.36-.25,1.64,1.64,0,0,0,.79-.72,4.23,4.23,0,0,0,.33-.84,5.26,5.26,0,0,0,.11-.91c.05-.69.6-1,1.63-1a2,2,0,0,1,1.29.34,1.68,1.68,0,0,1,.39,1.29,4.47,4.47,0,0,1-1.69,3.66,6.72,6.72,0,0,1-4.39,1.37,6.22,6.22,0,0,1-4.24-1.41A5.58,5.58,0,0,1,66.23,81Z"/><path class="cls-1" d="M80.32,81V69.09a.81.81,0,0,1,.49-.76A2.47,2.47,0,0,1,82,68.07a2.52,2.52,0,0,1,1.17.26.81.81,0,0,1,.48.76V81c0,2,.93,2.92,2.8,2.92s2.8-1,2.8-2.92V69.09a.81.81,0,0,1,.48-.76,2.76,2.76,0,0,1,2.34,0,.81.81,0,0,1,.48.76V81a5.46,5.46,0,0,1-1.66,4.41,7.74,7.74,0,0,1-8.88,0A5.48,5.48,0,0,1,80.32,81Z"/><path class="cls-1" d="M95.51,85.63V69.09a1,1,0,0,1,.34-.71,1.34,1.34,0,0,1,.91-.31h5.11a6.15,6.15,0,0,1,4.2,1.39,5.5,5.5,0,0,1,1.58,4.34V74A5.47,5.47,0,0,1,106,78.33a6.48,6.48,0,0,1-4.34,1.4H98.82v5.9a.85.85,0,0,1-.5.76,2.27,2.27,0,0,1-1.16.28A2.3,2.3,0,0,1,96,86.39.84.84,0,0,1,95.51,85.63Zm3.31-8.5h2.85a2.56,2.56,0,0,0,2-.74,3,3,0,0,0,.7-2.18V73.9a3,3,0,0,0-.7-2.19,2.59,2.59,0,0,0-2-.74H98.82Z"/><circle class="cls-2" cx="53.91" cy="27.28" r="25.82"/><path class="cls-3" d="M51,32c-.29-4-1.84-14.49-10.12-18.55,0,0-8-7.35-16.72-6.35,0,0-8.84,1.65-11.79,1.5,0,0,6.1,1.79,6.88,4.4,1,3.2,31.26,19.36,31.84,22.81a.87.87,0,0,0,.16.4c.62.78,2.76,5,2.66,25.37l1.47-3.93S54.81,45,57.76,43.55s18-9.37,21.75-13.31c0,0,9-11,32.09-7.6,0,0-4.76-4.41-16.55-4.88,0,0-27.92-14.95-38.86,24.55a1,1,0,0,0,0,.45c.06.38,0,1.24-1.2,2.1,0,0-1.64-9.4-3.26-11.09A2.87,2.87,0,0,1,51,32Z"/><path class="cls-4" d="M48.89,31.75c-2-2.26-4.16-4.35-6.36-6.38A83.17,83.17,0,0,0,35.6,19.7a69.71,69.71,0,0,0-7.48-4.9,87.52,87.52,0,0,0-8-4,40.45,40.45,0,0,1,8.55,3.08c1.4.61,2.68,1.44,4,2.17s2.56,1.64,3.78,2.56a53,53,0,0,1,6.85,6A42.08,42.08,0,0,1,48.89,31.75Z"/><path class="cls-4" d="M57.74,41.57a58.25,58.25,0,0,1,9.09-9.08,63.89,63.89,0,0,1,10.8-7.06A49.64,49.64,0,0,1,89.78,21a41.4,41.4,0,0,1,12.84-.75c-1.08.08-2.14.15-3.2.2l-1.59.09-1.58.25c-1,.18-2.1.29-3.13.5L90,22.07c-1,.21-2,.61-3,.91a28.57,28.57,0,0,0-3,1.07l-2.93,1.2-2.84,1.4a80.52,80.52,0,0,0-10.78,6.68c-1.7,1.27-3.39,2.57-5,4S59.27,40.08,57.74,41.57Z"/></g></g></svg>