<svg xmlns="http://www.w3.org/2000/svg" viewBox="0 0 191.05 47.82"><defs><style>.cls-1{fill:#fff;}.cls-2{fill:none;stroke:#9ed363;stroke-miterlimit:10;stroke-width:2.6px;}.cls-3{fill:#9ed363;}</style></defs><title>logo_horizontal_web</title><g id="Layer_2" data-name="Layer 2"><g id="color2"><path class="cls-1" d="M106.89,37.07h-2v3.47c0,.23,0,.44,0,.63a1.37,1.37,0,0,0,.12.51.84.84,0,0,0,.31.34,1.21,1.21,0,0,0,.59.12,2.37,2.37,0,0,0,.52-.06,2.18,2.18,0,0,0,.51-.17L107,43a2.67,2.67,0,0,1-.66.19,4.2,4.2,0,0,1-.69.06,2.47,2.47,0,0,1-1-.16,1.34,1.34,0,0,1-.58-.46,1.76,1.76,0,0,1-.28-.74,7.1,7.1,0,0,1-.06-1V37.07h-1.52v-1h1.52v-2h1.15v2h2Z"/><path class="cls-1" d="M114.52,41.77a3.45,3.45,0,0,1-1.37,1.12,4.16,4.16,0,0,1-1.72.32,3.51,3.51,0,0,1-1.47-.29,3.24,3.24,0,0,1-1.1-.78,3.35,3.35,0,0,1-.7-1.15,4.21,4.21,0,0,1-.24-1.43,3.92,3.92,0,0,1,.26-1.47,3.45,3.45,0,0,1,.74-1.16,3.49,3.49,0,0,1,1.13-.75,3.72,3.72,0,0,1,1.43-.27,3.39,3.39,0,0,1,1.33.25,2.83,2.83,0,0,1,1,.71,3.07,3.07,0,0,1,.67,1.14,4.57,4.57,0,0,1,.24,1.54v.37h-5.61a2.55,2.55,0,0,0,.7,1.56,2.16,2.16,0,0,0,.7.49,2.25,2.25,0,0,0,.87.17,2.89,2.89,0,0,0,1.28-.26,2.77,2.77,0,0,0,.93-.79Zm-1-2.83a2,2,0,0,0-.58-1.43,2.11,2.11,0,0,0-1.52-.53,2.13,2.13,0,0,0-2.27,2Z"/><path class="cls-1" d="M116.48,37a3.15,3.15,0,0,1,1.27-.81,4.49,4.49,0,0,1,1.49-.26,2.93,2.93,0,0,1,2.23.73,3.14,3.14,0,0,1,.68,2.21v3c0,.2,0,.41,0,.62s0,.41.07.58h-1.11a2.62,2.62,0,0,1-.07-.52c0-.2,0-.37,0-.51h0a2.71,2.71,0,0,1-.91.87,2.6,2.6,0,0,1-1.37.34,3.56,3.56,0,0,1-1-.13,2.6,2.6,0,0,1-.82-.39,2.06,2.06,0,0,1-.56-.65,2,2,0,0,1-.2-.89,2,2,0,0,1,.44-1.35,2.73,2.73,0,0,1,1.11-.73,5,5,0,0,1,1.42-.29q.77-.06,1.41-.06H121v-.21a1.4,1.4,0,0,0-.45-1.14,1.89,1.89,0,0,0-1.27-.39,3.24,3.24,0,0,0-1.11.19,2.49,2.49,0,0,0-1,.57Zm3.35,2.72a4.08,4.08,0,0,0-1.76.31,1.05,1.05,0,0,0-.66,1,1,1,0,0,0,.44.93,2,2,0,0,0,1.09.27,2,2,0,0,0,.88-.17,1.76,1.76,0,0,0,.64-.45,2.15,2.15,0,0,0,.38-.66,2.65,2.65,0,0,0,.15-.81V39.7Z"/><path class="cls-1" d="M124.27,31.81h1.16v5.24h0a1.87,1.87,0,0,1,.32-.4,2.4,2.4,0,0,1,.5-.37,3,3,0,0,1,.65-.27,3.18,3.18,0,0,1,1.93.11,2.26,2.26,0,0,1,.83.58,2.31,2.31,0,0,1,.48.89,4.28,4.28,0,0,1,.15,1.16V43h-1.15V38.86a2.22,2.22,0,0,0-.39-1.38,1.44,1.44,0,0,0-1.2-.5,2.21,2.21,0,0,0-1,.19,1.71,1.71,0,0,0-.67.55,2.66,2.66,0,0,0-.39.85,4.46,4.46,0,0,0-.12,1.08V43h-1.16Z"/><path class="cls-1" d="M132.12,39.56a3.72,3.72,0,0,1,.28-1.48,3.57,3.57,0,0,1,.77-1.15,3.5,3.5,0,0,1,1.18-.75,4.19,4.19,0,0,1,3,0,3.5,3.5,0,0,1,1.18.75,3.57,3.57,0,0,1,.77,1.15,3.72,3.72,0,0,1,.28,1.48,3.61,3.61,0,0,1-1,2.64,3.5,3.5,0,0,1-1.18.75,4.34,4.34,0,0,1-3,0,3.5,3.5,0,0,1-1.18-.75,3.61,3.61,0,0,1-1-2.64Zm1.25,0a2.8,2.8,0,0,0,.17,1,2.38,2.38,0,0,0,.49.81,2.26,2.26,0,0,0,.78.55,2.41,2.41,0,0,0,1,.2,2.38,2.38,0,0,0,1-.2,2.26,2.26,0,0,0,.78-.55,2.38,2.38,0,0,0,.49-.81,2.8,2.8,0,0,0,.17-1,2.88,2.88,0,0,0-.17-1,2.32,2.32,0,0,0-1.27-1.36,2.54,2.54,0,0,0-1-.2,2.58,2.58,0,0,0-1,.2,2.32,2.32,0,0,0-1.27,1.36A2.88,2.88,0,0,0,133.37,39.56Z"/><path class="cls-1" d="M147.39,41.39c0,.31,0,.61,0,.89s0,.53,0,.75h-1.1c0-.18,0-.37,0-.56s0-.38,0-.58h0a2.11,2.11,0,0,1-.33.49,2.33,2.33,0,0,1-.51.42,2.4,2.4,0,0,1-.67.3,3.22,3.22,0,0,1-2-.1,2.24,2.24,0,0,1-.83-.57,2.59,2.59,0,0,1-.48-.9,4.21,4.21,0,0,1-.15-1.15V36.09h1.15v4.17a2.22,2.22,0,0,0,.39,1.38,1.41,1.41,0,0,0,1.2.5,2.21,2.21,0,0,0,1-.19,1.65,1.65,0,0,0,.67-.55,2.71,2.71,0,0,0,.39-.84,4.61,4.61,0,0,0,.12-1.09V36.09h1.16Z"/><path class="cls-1" d="M149.74,41.21a2.67,2.67,0,0,0,.75.68,1.89,1.89,0,0,0,1,.25,2.48,2.48,0,0,0,.54-.06,1.67,1.67,0,0,0,.5-.19,1.23,1.23,0,0,0,.35-.33.87.87,0,0,0,.14-.48.78.78,0,0,0-.13-.46,1.23,1.23,0,0,0-.33-.31,2.1,2.1,0,0,0-.48-.2l-.55-.13c-.32-.07-.64-.15-.93-.24a3.12,3.12,0,0,1-.78-.35,1.61,1.61,0,0,1-.54-.56,1.91,1.91,0,0,1,0-1.76,1.81,1.81,0,0,1,.59-.64,2.88,2.88,0,0,1,.83-.39,3.75,3.75,0,0,1,1-.13,3.16,3.16,0,0,1,1.37.3,2.18,2.18,0,0,1,1,1l-1,.64a1.67,1.67,0,0,0-.58-.6,1.65,1.65,0,0,0-.88-.23,2.12,2.12,0,0,0-.49.06,1.39,1.39,0,0,0-.43.18,1,1,0,0,0-.32.3.7.7,0,0,0-.13.42.56.56,0,0,0,.14.38,1.19,1.19,0,0,0,.39.28,2.62,2.62,0,0,0,.56.2A6.38,6.38,0,0,0,152,39a7.54,7.54,0,0,1,.88.23,2.59,2.59,0,0,1,.72.38,1.59,1.59,0,0,1,.49.6,1.87,1.87,0,0,1,.18.87,2,2,0,0,1-.24,1,1.76,1.76,0,0,1-.63.67,2.63,2.63,0,0,1-.89.38,4.29,4.29,0,0,1-1,.12,4,4,0,0,1-1.54-.27,2.76,2.76,0,0,1-1.16-1Z"/><path class="cls-1" d="M162.11,41.77a3.43,3.43,0,0,1-1.36,1.12,4.22,4.22,0,0,1-1.72.32,3.45,3.45,0,0,1-1.47-.29,3.18,3.18,0,0,1-1.11-.78,3.51,3.51,0,0,1-.7-1.15,4.21,4.21,0,0,1-.24-1.43,3.92,3.92,0,0,1,.27-1.47,3.16,3.16,0,0,1,.74-1.16,3.29,3.29,0,0,1,1.13-.75,3.67,3.67,0,0,1,1.42-.27,3.47,3.47,0,0,1,1.34.25,2.88,2.88,0,0,1,1,.71,3.23,3.23,0,0,1,.68,1.14,4.58,4.58,0,0,1,.23,1.54v.37h-5.6a2.53,2.53,0,0,0,.21.85,2.34,2.34,0,0,0,.48.71,2.16,2.16,0,0,0,.7.49,2.3,2.3,0,0,0,.88.17,2.84,2.84,0,0,0,1.27-.26,2.9,2.9,0,0,0,.94-.79Zm-1-2.83a2,2,0,0,0-.58-1.43A2.1,2.1,0,0,0,159,37a2.25,2.25,0,0,0-1.56.53,2.19,2.19,0,0,0-.71,1.43Z"/><path class="cls-1" d="M71.23,21.34a1.84,1.84,0,0,1,.42-1.4,2.1,2.1,0,0,1,1.42-.38c1.15,0,1.77.38,1.84,1.16.08,2,1,3,2.92,3s3-1.09,3-3.26V9.33H77.94a1,1,0,0,1-.85-.48,2.07,2.07,0,0,1-.31-1.16,2,2,0,0,1,.3-1.12,1,1,0,0,1,.86-.46h5A2,2,0,0,1,84,6.42a1,1,0,0,1,.48.85V20.49a6.2,6.2,0,0,1-1.8,4.92A6.94,6.94,0,0,1,78,27a7.58,7.58,0,0,1-4.89-1.52A5,5,0,0,1,71.23,21.34Z"/><path class="cls-1" d="M87.74,20.49V7.24a.91.91,0,0,1,.54-.85,3.16,3.16,0,0,1,2.6,0,.91.91,0,0,1,.54.85V20.49q0,3.26,3.12,3.26t3.11-3.26V7.24a.91.91,0,0,1,.54-.85,2.74,2.74,0,0,1,1.3-.28,2.79,2.79,0,0,1,1.31.28.92.92,0,0,1,.53.85V20.49c0,2.23-.61,3.87-1.85,4.92a8.59,8.59,0,0,1-9.89,0Q87.75,23.86,87.74,20.49Z"/><path class="cls-1" d="M103.63,23.55a2.23,2.23,0,0,1,.49-1.32,1.41,1.41,0,0,1,1.12-.66,1.47,1.47,0,0,1,.84.35,10.92,10.92,0,0,1,.9.78,4.13,4.13,0,0,0,1.26.78,4.51,4.51,0,0,0,1.82.35,3.86,3.86,0,0,0,2.26-.62,2.07,2.07,0,0,0,.91-1.84,2.5,2.5,0,0,0-.5-1.52,3.91,3.91,0,0,0-1.3-1.1c-.54-.29-1.13-.58-1.77-.85s-1.29-.58-1.94-.92a10.66,10.66,0,0,1-1.78-1.15,4.53,4.53,0,0,1-1.31-1.7,5.62,5.62,0,0,1-.49-2.42A5.64,5.64,0,0,1,104.75,9a4.7,4.7,0,0,1,1.62-1.82,7.6,7.6,0,0,1,2.19-.94A9.32,9.32,0,0,1,111,6a12.43,12.43,0,0,1,1.56.11,14.21,14.21,0,0,1,1.74.33,3.76,3.76,0,0,1,1.5.73,1.47,1.47,0,0,1,.58,1.16,2.49,2.49,0,0,1-.4,1.3,1.2,1.2,0,0,1-1.07.68,5.26,5.26,0,0,1-1.39-.54A5.81,5.81,0,0,0,111,9.19a4.19,4.19,0,0,0-2.37.58,1.9,1.9,0,0,0-.15,3,5.12,5.12,0,0,0,1.68,1c.67.26,1.4.58,2.18,1A17.15,17.15,0,0,1,114.55,16a5.22,5.22,0,0,1,1.68,2,6.37,6.37,0,0,1,.68,3,5.54,5.54,0,0,1-1.86,4.48,7.22,7.22,0,0,1-4.88,1.58,9.24,9.24,0,0,1-4.62-1.1C104.27,25.22,103.63,24.42,103.63,23.55Z"/><path class="cls-1" d="M118.07,7.71a2.06,2.06,0,0,1,.3-1.12,1,1,0,0,1,.86-.48h12a1,1,0,0,1,.87.48,2.15,2.15,0,0,1,.29,1.12,2,2,0,0,1-.31,1.14,1,1,0,0,1-.85.48h-4.13V25.64a1,1,0,0,1-.56.86,2.61,2.61,0,0,1-1.28.31,2.67,2.67,0,0,1-1.31-.31,1,1,0,0,1-.53-.86V9.33h-4.17a1,1,0,0,1-.85-.47A2,2,0,0,1,118.07,7.71Z"/><path class="cls-1" d="M130.9,23.18A3.27,3.27,0,0,1,132.6,20a10.65,10.65,0,0,1,4.9-.91h1.16v-.38a3,3,0,0,0-.61-1.87,2.2,2.2,0,0,0-1.88-.81,4.47,4.47,0,0,0-2.18.49,5,5,0,0,1-1.05.48,1,1,0,0,1-.91-.57,2.44,2.44,0,0,1-.34-1.25c0-.54.49-1,1.46-1.43a8,8,0,0,1,3.07-.6,6.06,6.06,0,0,1,4.59,1.57,5.47,5.47,0,0,1,1.5,4v6.94a1,1,0,0,1-.51.82,2.29,2.29,0,0,1-1.27.34,1.85,1.85,0,0,1-1.18-.37,1.06,1.06,0,0,1-.46-.87v-.88a5.59,5.59,0,0,1-4.31,2.37,3.69,3.69,0,0,1-2.65-1A3.81,3.81,0,0,1,130.9,23.18Zm3.65-.46a1.38,1.38,0,0,0,.41,1.09,1.61,1.61,0,0,0,1.09.36,2.54,2.54,0,0,0,1.76-.8,2.41,2.41,0,0,0,.85-1.78V21h-.42a8.43,8.43,0,0,0-2.71.34A1.31,1.31,0,0,0,134.55,22.72Z"/><path class="cls-1" d="M145,20.49v-7.9q0-3.35,1.81-4.91a6.94,6.94,0,0,1,4.73-1.57,7.69,7.69,0,0,1,4.86,1.47,4.72,4.72,0,0,1,1.88,3.91,1.88,1.88,0,0,1-.43,1.43,2.11,2.11,0,0,1-1.41.38c-1.21,0-1.82-.39-1.84-1.16,0-.25,0-.46-.07-.64a3.75,3.75,0,0,0-.23-.71,2.24,2.24,0,0,0-.47-.73,2.2,2.2,0,0,0-.85-.51,3.56,3.56,0,0,0-1.33-.22q-3,0-3,3.26v7.9q0,3.26,3,3.26a3.7,3.7,0,0,0,1.51-.28,1.79,1.79,0,0,0,.88-.81,4.42,4.42,0,0,0,.37-.94,5.08,5.08,0,0,0,.13-1c0-.78.66-1.16,1.81-1.16a2.13,2.13,0,0,1,1.43.38,1.85,1.85,0,0,1,.44,1.43,5,5,0,0,1-1.88,4.08A7.53,7.53,0,0,1,151.46,27a6.92,6.92,0,0,1-4.71-1.57A6.2,6.2,0,0,1,145,20.49Z"/><path class="cls-1" d="M160.64,20.49V7.24a.92.92,0,0,1,.53-.85,2.79,2.79,0,0,1,1.31-.28,2.74,2.74,0,0,1,1.3.28.91.91,0,0,1,.54.85V20.49q0,3.26,3.11,3.26t3.12-3.26V7.24a.91.91,0,0,1,.54-.85,3.16,3.16,0,0,1,2.6,0,.91.91,0,0,1,.54.85V20.49a6.12,6.12,0,0,1-1.85,4.92,8.59,8.59,0,0,1-9.89,0Q160.64,23.86,160.64,20.49Z"/><path class="cls-1" d="M177.54,25.65V7.24a1,1,0,0,1,.39-.79,1.43,1.43,0,0,1,1-.34h5.69a6.82,6.82,0,0,1,4.68,1.54,6.11,6.11,0,0,1,1.75,4.83v.17a6.08,6.08,0,0,1-1.82,4.87,7.19,7.19,0,0,1-4.83,1.56h-3.17v6.57a1,1,0,0,1-.56.85,2.62,2.62,0,0,1-1.29.31,2.66,2.66,0,0,1-1.3-.31A1,1,0,0,1,177.54,25.65Zm3.69-9.46h3.17a2.9,2.9,0,0,0,2.19-.82,3.42,3.42,0,0,0,.78-2.44v-.34a3.38,3.38,0,0,0-.78-2.43,2.87,2.87,0,0,0-2.19-.83h-3.17Z"/><circle class="cls-2" cx="34.07" cy="21.29" r="19.99"/><path class="cls-3" d="M29.87,24.91c-.22-3.09-1.4-11.22-7.81-14.37,0,0-6.21-5.7-12.93-4.94,0,0-6.85,1.26-9.13,1.14,0,0,4.72,1.4,5.33,3.42.74,2.48,24.16,15,24.6,17.7a.69.69,0,0,0,.12.31c.49.61,2.14,3.85,2,19.65l1.14-3s-.38-9.76,1.9-10.9S49.07,26.64,52,23.6c0,0,7-8.49,24.85-5.83,0,0-3.67-3.42-12.8-3.81,0,0-21.59-11.61-30.12,18.95a.84.84,0,0,0,0,.35c0,.29,0,1-.93,1.62,0,0-1.26-7.28-2.51-8.59A2.24,2.24,0,0,1,29.87,24.91Z"/><path d="M28.27,24.74c-1.56-1.74-3.22-3.37-4.92-4.93A65.9,65.9,0,0,0,18,15.41a53.88,53.88,0,0,0-5.8-3.78A67,67,0,0,0,6,8.51a32.11,32.11,0,0,1,6.62,2.38c1.08.48,2.07,1.12,3.11,1.69s2,1.27,2.93,2a41.21,41.21,0,0,1,5.3,4.66A33,33,0,0,1,28.27,24.74Z"/><path d="M35.12,32.35a45,45,0,0,1,7-7,48.7,48.7,0,0,1,8.36-5.47,38.38,38.38,0,0,1,9.41-3.4,31.91,31.91,0,0,1,9.93-.58c-.83.06-1.65.11-2.48.15l-1.23.07-1.22.2c-.81.13-1.62.21-2.43.37l-2.38.58c-.8.17-1.56.48-2.34.72a22.58,22.58,0,0,0-2.31.82l-2.27.93L51,20.8A63.49,63.49,0,0,0,42.66,26q-2,1.45-3.87,3.06C37.51,30.06,36.31,31.19,35.12,32.35Z"/></g></g></svg>